<svg id="Camada_1" data-name="Camada 1" xmlns="http://www.w3.org/2000/svg" viewBox="0 0 105 92"><defs><style>.cls-1{fill:none;stroke:#eee;stroke-miterlimit:10;}</style></defs><path class="cls-1" d="M7.62,42.78C9.35,46.64,20,69.89,28.36,78.27c0,0,25.55-5.46,30.87-7.82,0,0,1.18-5,5.61-4.73s4.73,2.66,4.73,2.66l28.06-5.91s1.44-1.18-1.35-2.22c0,0,.76-1.32-.13-1.62l-3-3.25s1.48-1.18,1.48-2.07L92,50.65a5.78,5.78,0,0,0,.91-2.21s-20.71-24.67-23.36-27l-2.07.88s-5.32-5-5.32-5.9a.65.65,0,0,0-.89.29s-1.18,4.14-7.38,4.43l-8-8.27a3,3,0,0,0-2.66.3l3.25,4.72s.89,3.55-4.43,8.27l-4.43-5.61a6.08,6.08,0,0,0-5-.59c-2.66,0-10.64,8.57-14.18,8L19.35,30s-1.78,3.24-8,2.95l1.77,3A13.93,13.93,0,0,1,9.3,37.36v4.73L8,42.19A.43.43,0,0,0,7.62,42.78Z"/><polyline class="cls-1" points="46.52 17.86 62.18 35.88 65.43 35 53.91 21.11"/><path class="cls-1" d="M64.54,62.8a15.25,15.25,0,0,1-.3-1.64,19.52,19.52,0,0,1,2.24-11.93c5.9-11-1-14.23-1-14.23"/><path class="cls-1" d="M67.5,22.29S82.12,39.87,84.19,41.05c0,0-.53,5.3-10.35,8.87a19.43,19.43,0,0,0-3.27,1.52,11.67,11.67,0,0,0-6.23,10.37"/><path class="cls-1" d="M92,50.65s-4.29,3.4-16.1,3.4c0,0-8.87.67-10.49,8.75"/><path class="cls-1" d="M18.46,27.91S35.45,52,39.29,57.3a10.78,10.78,0,0,0,10.93-2.36s8.56-6.21,12.11-2.66l.88,8.27s-10.63-6.5-23.63,3.84c0,0-5.32,3.25-8,1.48,0,0-16.25-26-18.47-30"/><line class="cls-1" x1="63.21" y1="60.55" x2="64.06" y2="62.96"/><path class="cls-1" d="M64.06,63.92s-8.23-8.69-31.57,7a3.46,3.46,0,0,1-2.54,0L9.3,37.36"/><path class="cls-1" d="M42.09,26.13S58.64,45.34,62.33,52.28"/></svg>