<svg id="Camada_1" data-name="Camada 1" xmlns="http://www.w3.org/2000/svg" viewBox="0 0 50 50"><defs><style>.cls-1{fill:#fff;}</style></defs><circle class="cls-1" cx="25" cy="25" r="25"/><path d="M10.06,23.4l3.28,5.47a1.51,1.51,0,0,0,1.64.69l23.14-5.51a2.37,2.37,0,0,0,1.63-3.23h0a2.36,2.36,0,0,0-2.82-1.34L30.5,21.31a1,1,0,0,1-1-.21l-9.46-8.28a1.33,1.33,0,0,0-.87-.33H16.8a.53.53,0,0,0-.45.82L22,22.39a.34.34,0,0,1-.18.5L14.92,25.2a.63.63,0,0,1-.64-.16l-2-2a.72.72,0,0,0-.74-.17Z"/><rect x="11.34" y="33.66" width="28.22" height="3.85" rx="0.34"/></svg>