<svg id="Camada_1" data-name="Camada 1" xmlns="http://www.w3.org/2000/svg" viewBox="0 0 59 78"><defs><style>.cls-1,.cls-2{fill:none;stroke:#eee;stroke-miterlimit:10;}.cls-2{stroke-width:0.7px;}.cls-3{fill:#eee;}</style></defs><circle class="cls-1" cx="29.9" cy="53.57" r="22.43"/><path class="cls-2" d="M48.1,53.57a18.2,18.2,0,1,1-18.2-18.2"/><path class="cls-1" d="M38.55,12.57a46.26,46.26,0,0,0-7.92,13.29,1.09,1.09,0,0,1-2-.06,36,36,0,0,0-7.9-13.6.26.26,0,0,1,.23-.44c6.77.85,12.49,1.23,17.34.3A.31.31,0,0,1,38.55,12.57Z"/><path class="cls-1" d="M17.72,34.74c-2.52-7.13-6.9-14.64-12.55-22.4A2.61,2.61,0,0,1,6,8.55a39.71,39.71,0,0,0,8.63-6.13,2.63,2.63,0,0,1,2.05-.85c15,.68,22.19.51,26.79.07a2.62,2.62,0,0,1,2.08.73c1.63,1.61,5.38,5.07,7.65,7a2.6,2.6,0,0,1,.43,3.47C45.17,25,43.57,29.39,41.47,34.35"/><path class="cls-2" d="M49.94,6.51s-10.71,10.62-15.79,25"/><path class="cls-2" d="M23.2,32.16C22.85,25.56,9.36,6.51,9.36,6.51"/><path class="cls-3" d="M33.71,59.05H26.57V57.79h2.86V48l-2.93.87V47.48l4.37-1.33V57.79h2.84Z"/></svg>