<svg id="Camada_1" data-name="Camada 1" xmlns="http://www.w3.org/2000/svg" viewBox="0 0 50 50"><defs><style>.cls-1{fill:#fff;}</style></defs><path class="cls-1" d="M48.75,31.31l-5.09-4,0,.06A19.25,19.25,0,0,0,43.78,25a18.9,18.9,0,0,0-.16-2.51l5-3.91a1.47,1.47,0,0,0,.37-1.9L44.13,8.22a1.48,1.48,0,0,0-1.84-.63L36.34,10a19,19,0,0,0-4.05-2.35l-.88-6.37A1.48,1.48,0,0,0,29.94,0H20.18a1.49,1.49,0,0,0-1.47,1.28l-.87,6.28a18.6,18.6,0,0,0-4.35,2.51L7.6,7.68a1.48,1.48,0,0,0-1.84.63L.88,16.76a1.48,1.48,0,0,0,.37,1.91l5,3.91A19.29,19.29,0,0,0,6.13,25a19,19,0,0,0,.15,2.4l-5,3.91a1.49,1.49,0,0,0-.37,1.91l4.88,8.46a1.48,1.48,0,0,0,1.84.63l5.87-2.39a18.62,18.62,0,0,0,4.37,2.52l.87,6.28A1.49,1.49,0,0,0,20.18,50h9.76a1.48,1.48,0,0,0,1.47-1.28l.88-6.37a19.18,19.18,0,0,0,4.18-2.45l5.93,2.41a1.48,1.48,0,0,0,1.84-.63l4.88-8.46A1.49,1.49,0,0,0,48.75,31.31ZM25,34.47A9.47,9.47,0,1,1,34.42,25,9.47,9.47,0,0,1,25,34.47Z"/></svg>