<svg id="Camada_1" data-name="Camada 1" xmlns="http://www.w3.org/2000/svg" viewBox="0 0 50 50"><defs><style>.cls-1{fill:#fff;}</style></defs><path class="cls-1" d="M25,25h0V2.82a.3.3,0,0,0-.51-.21L9.84,17.22a.27.27,0,0,1-.21.09H.3a.29.29,0,0,0-.3.29V32.4a.29.29,0,0,0,.3.29H9.68a.3.3,0,0,1,.21.09l14.6,14.61a.3.3,0,0,0,.51-.21Z"/><path class="cls-1" d="M29.81,13.46V17a.46.46,0,0,0,.27.42,8.58,8.58,0,0,1,5,7.62,8.58,8.58,0,0,1-5,7.62.46.46,0,0,0-.27.42v3.5a.48.48,0,0,0,.6.47c5.75-1.49,10-6.3,10-12s-4.22-10.52-10-12A.48.48,0,0,0,29.81,13.46Z"/><path class="cls-1" d="M29.81,2.83v4a.46.46,0,0,0,.33.45C38.84,10.09,45,16.75,45,24.52S38.84,39,30.14,41.8a.46.46,0,0,0-.33.45v4.92a.48.48,0,0,0,.57.48C41.56,45.6,50,36.24,50,25S41.56,4.4,30.38,2.35A.48.48,0,0,0,29.81,2.83Z"/></svg>