<svg id="Camada_1" data-name="Camada 1" xmlns="http://www.w3.org/2000/svg" viewBox="0 0 50 50"><path d="M25,6.43V3a.61.61,0,0,0-.61-.61H5.4A5.4,5.4,0,0,0,0,7.74V42.26a5.4,5.4,0,0,0,5.4,5.4h19a.61.61,0,0,0,.61-.61V43.57a.6.6,0,0,0-.61-.6H5.29a.6.6,0,0,1-.6-.61V7.64A.6.6,0,0,1,5.29,7h19.1A.6.6,0,0,0,25,6.43Z"/><path d="M49.84,22.66H24.52a.17.17,0,0,1-.12-.29l6.05-5.84a.18.18,0,0,0,0-.24l-2.69-2.6a.17.17,0,0,0-.23,0L15.75,25.09a.15.15,0,0,0,0,.23L27.58,36.75a.17.17,0,0,0,.23,0l2.69-2.6a.18.18,0,0,0,0-.24L24,27.63a.17.17,0,0,1,.11-.29H49.84a.16.16,0,0,0,.16-.16V22.82A.16.16,0,0,0,49.84,22.66Z"/></svg>