<svg id="Camada_1" data-name="Camada 1" xmlns="http://www.w3.org/2000/svg" viewBox="0 0 73 70"><defs><style>.cls-1,.cls-2{fill:none;stroke:#eee;stroke-miterlimit:10;}.cls-2{stroke-width:0.7px;}</style></defs><path class="cls-1" d="M2,67.5,13.23,5.44A2.9,2.9,0,0,1,15.9,3c1,0,2,.49,2.42,2.46.2.94-.74,2.38.2,2.2C22,7,31.43,5.32,40.05,3.42a2.14,2.14,0,0,1,2.59,1.83c0,.06,0,.12,0,.18a2.1,2.1,0,0,0,2.54,2c3-.57,9-1.75,21.19-4.22a2.08,2.08,0,0,1,.93,0c1.09.27,3.53,1.18,2.7,3.68L64.5,32.74a2.15,2.15,0,0,1-2.84,1.55C58,33,50,31.39,39.51,36.52a2.06,2.06,0,0,1-.94.22c-1.14,0-3.9-.55-8.27-4.71a2.16,2.16,0,0,0-1.66-.6c-2.67.21-16.14,4.23-16.85,4.23a2.16,2.16,0,0,0-2.16,1.67L3.05,67.5Z"/><line class="cls-2" x1="40.78" y1="7.45" x2="34.4" y2="25.52"/><line class="cls-2" x1="43.97" y1="10.64" x2="41.31" y2="18.61"/></svg>