<svg id="Camada_1" data-name="Camada 1" xmlns="http://www.w3.org/2000/svg" viewBox="0 0 50 50"><defs><style>.cls-1{fill:#fff;}</style></defs><circle class="cls-1" cx="25" cy="25" r="25"/><path d="M34,23.77c2.47-3.52,3.63-7.67.2-11a6,6,0,0,0-7.51-.89,2.84,2.84,0,0,1-1.69.62h0a2.84,2.84,0,0,1-1.69-.62,6,6,0,0,0-7.51.89c-3.43,3.35-2.27,7.5.2,11A7.76,7.76,0,1,0,23.8,36.25,7.88,7.88,0,0,1,22.49,34a5.37,5.37,0,1,1-4.75-8,21.87,21.87,0,0,0,6.67,5.21c0,.05,0,.1,0,.16A7.77,7.77,0,1,0,34,23.77ZM32.17,36.69a5.38,5.38,0,0,1-5.38-5.38,5.29,5.29,0,0,1,.08-.81,26,26,0,0,0,5.39-4.56,5.38,5.38,0,0,1-.09,10.75Z"/></svg>